<?xml version="1.0" encoding="UTF-8"?><svg id="c" xmlns="http://www.w3.org/2000/svg" xmlns:xlink="http://www.w3.org/1999/xlink" viewBox="0 0 1581 368"><metadata><?xpacket begin="" id="W5M0MpCehiHzreSzNTczkc9d"?><x:xmpmeta xmlns:x="adobe:ns:meta/" x:xmptk="XMP Core 6.0.0"><rdf:RDF xmlns:rdf="http://www.w3.org/1999/02/22-rdf-syntax-ns#"><rdf:Description rdf:about="" xmlns:xmp="http://ns.adobe.com/xap/1.0/" xmlns:xmpMM="http://ns.adobe.com/xap/1.0/mm/" xmlns:dc="http://purl.org/dc/elements/1.1/" xmlns:dcterms="http://purl.org/dc/terms/" xmpMM:DocumentID="xmp.did:cb9f5498-bb58-4572-8043-8c369e6bfb9b" xmpMM:InstanceID="xmp.iid:cb9f5498-bb58-4572-8043-8c369e6bfb9b" dcterms:provenance="https://cai-manifests.adobe.com/manifests/urn-c2pa-f886b61c-50c4-498d-83b0-c5b2fdb0c58d-adobe"> </rdf:Description></rdf:RDF></x:xmpmeta>
<?xpacket end="w"?></metadata><defs><linearGradient id="d" x1="184" y1="368" x2="184" y2="0" gradientUnits="userSpaceOnUse"><stop offset="0" stop-color="#006efb"/><stop offset="1" stop-color="#008cfc"/></linearGradient><linearGradient id="e" x1="64.49018" y1="197.20586" x2="229.23862" y2="292.32342" gradientUnits="userSpaceOnUse"><stop offset=".4" stop-color="#cff0f7"/><stop offset="1" stop-color="#68d0fc"/></linearGradient></defs><rect x="0" width="368" height="368" rx="69" ry="69" style="fill:url(#d);"/><path d="M289.70865,98.49266l14.42477,16.48471c3.28437,3.54366,2.69959,9.16826-1.2435,11.9605l-57.09109,37.98243c-3.5394,2.35475-8.26204,1.80782-11.16957-1.29355l-4.26302-4.54722c-3.18697-3.39944-3.13089-8.70593.12722-12.03725l47.63463-48.70507c3.19531-3.26712,8.47411-3.19625,11.58057.15545Z" style="fill:#fcfcfc;"/><path d="M324.14491,197.14967l-2.84243,21.58139c-.85797,5.91049-6.80239,9.64891-12.50124,7.86198l-60.43153-18.94887c-4.313-1.35238-7.1202-5.50456-6.76815-10.01089l.3259-3.17147c.41083-5.25859,4.94847-9.22504,10.21477-8.92895l62.94805.53895c5.68445.31961,9.87251,5.44348,9.05462,11.07786Z" style="fill:#fcfcfc;"/><path d="M221.69924,54.80109l-24.63606-1.51866c-8.03077-.49505-14.56043,6.38311-13.64885,14.37732l7.68546,67.39899c.52777,4.46054,4.04849,7.97552,8.50989,8.49602l3.60534.42062c4.97759.58072,9.5783-2.72531,10.61544-7.62816l14.7762-72.53749c.91212-4.47768-2.34643-8.72748-6.90741-9.00864Z" style="fill:#fcfcfc;"/><path d="M186.60767,164.33333h-83.94729c-16.75542,0-30.88991,12.47421-32.97275,29.09968l-12.93869,82.32995c-2.69861,21.54067,14.09608,40.57067,35.80513,40.57067h101.98221c21.67717,0,38.46218-18.97686,35.81493-40.49178l-10.76179-82.33619c-2.04961-16.6577-16.19844-29.17233-32.98177-29.17233Z" style="fill:url(#e);"/><path d="M99.22222,164.33333h90.55556c7.29754,0,13.22222,5.92468,13.22222,13.22222v67.44479c0,12.32641-10.00748,22.33388-22.33388,22.33388h-72.33223c-12.32641,0-22.33388-10.00748-22.33388-22.33388v-67.44479c0-7.29754,5.92468-13.22222,13.22222-13.22222Z" style="fill:#fcfcfc;"/><path d="M669.67969,315.43652h52.14941V65.98438h-52.14941v249.45215ZM590.19434,261.26074c-10.73535,5.92285-23.33496,8.88477-37.7998,8.88477-14,0-26.89551-3.31055-38.6748-9.92969-11.78516-6.61914-21.17578-15.90625-28.17578-27.87207-7-11.95898-10.5-25.72168-10.5-41.28516,0-16.02637,3.5-29.96191,10.5-41.80762s16.4502-21.07812,28.35059-27.69727c11.89941-6.62012,24.96484-9.92969,39.2002-9.92969,9.3291,0,17.6748,1.33887,25.02441,4.00684,7.35059,2.67285,13.70508,6.04199,19.0752,10.10352,5.36523,4.06641,9.7998,8.1875,13.2998,12.36816l38.15039-36.93066c-7.93555-8.82422-16.68555-16.25488-26.25-22.29688-9.57031-6.03711-20.01074-10.62598-31.3252-13.76172-11.32031-3.13574-23.74512-4.70312-37.27539-4.70312-18.66992,0-36.16992,3.30957-52.5,9.92871-16.33496,6.62012-30.50977,15.85254-42.52441,27.69824-12.02051,11.84473-21.41016,25.66699-28.1748,41.45898-6.77051,15.79688-10.15039,32.86816-10.15039,51.21387,0,18.35059,3.37988,35.42285,10.15039,51.21484,6.76465,15.79785,16.1543,29.61426,28.1748,41.45898,12.01465,11.8457,26.12988,21.07812,42.34961,27.69824,16.21484,6.61914,33.77539,9.92871,52.6748,9.92871,14,0,27.17969-1.6875,39.55078-5.05176,12.36426-3.36426,23.73926-8.47559,34.125-15.3291,10.37891-6.84863,19.6543-15.26953,27.82422-25.25879l-37.7998-36.2334c-7.46973,8.83008-16.57031,16.2002-27.2998,22.12305ZM749.30469,315.43652h52.14941v-177.68262h-52.14941v177.68262ZM939.66992,267.3584c-6.4209,3.95117-14.2959,5.92188-23.625,5.92188-8.87012,0-16.68555-2.03027-23.4502-6.09668-6.77051-4.06055-12.02051-9.58105-15.75-16.54883-3.73535-6.96777-5.59961-14.98047-5.59961-24.03906s1.86426-17.0127,5.59961-23.86621c3.72949-6.84766,8.97949-12.30762,15.75-16.375,6.76465-4.06055,14.58008-6.09668,23.4502-6.09668,8.62988,0,16.21484,1.56836,22.75,4.70312,6.5293,3.13574,11.42969,8.1875,14.7002,15.15527l47.59961-19.16113c-6.53516-16.48926-17.3252-28.74316-32.375-36.75586-15.0498-8.01367-32.49512-12.01953-52.3252-12.01953-18.66992,0-35.34961,4.00586-50.0498,12.01953-14.7002,8.0127-26.19531,19.10742-34.47461,33.27148-8.28516,14.16992-12.42578,30.54492-12.42578,49.125,0,18.58496,4.14062,35.01367,12.42578,49.29785,8.2793,14.28418,19.77441,25.37891,34.47461,33.27148,14.7002,7.89355,31.37988,11.8457,50.0498,11.8457,19.60059,0,36.9248-4.30078,51.97559-12.89062,15.0498-8.58984,26.30469-20.78418,33.77441-36.58105l-46.89941-19.85938c-3.9707,6.50586-9.16016,11.73145-15.5752,15.67871ZM1412.83398,144.37305c-13.18555-8.12695-29.5752-12.19336-49.1748-12.19336-17.9707,0-33.9502,4.41504-47.9502,13.23926-14,8.8291-25.02539,20.44043-33.0752,34.83887-8.0498,14.4043-12.0752,29.96191-12.0752,46.68652,0,18.11621,4.08008,34.2627,12.25,48.42676,8.16504,14.16992,19.42578,25.31836,33.77539,33.44629,14.34961,8.12695,30.625,12.19336,48.8252,12.19336,20.2998,0,37.56445-4.18066,51.7998-12.54199,14.22949-8.36133,25.42969-19.73926,33.59961-34.14258l-42.34961-19.8584c-3.5,6.04199-8.9248,11.14844-16.27539,15.3291-7.34961,4.18066-15.80957,6.27051-25.375,6.27051-7.93457,0-15.51953-1.96973-22.75-5.92188-7.23438-3.94727-13.07031-9.69531-17.5-17.24609-2.125-3.61536-3.72559-7.62915-4.83203-12.01953h130.13281c.46484-1.39355.81445-3.94629,1.0498-7.66504.22949-3.71191.34961-7.43066.34961-11.14844,0-16.49023-3.44531-31.53027-10.3252-45.11816-6.88477-13.58691-16.91992-24.44238-30.09961-32.5752ZM1323.75391,203.60059c.67725-1.68237,1.42334-3.31787,2.28027-4.87793,4.0791-7.43066,9.625-13.35254,16.625-17.76758,7-4.40918,14.81445-6.62012,23.4502-6.62012,5.8291,0,11.02441,1.0459,15.57422,3.13574,4.55078,2.09082,8.40039,4.64941,11.55078,7.66504,3.14941,3.02148,5.6543,6.15625,7.52441,9.40625,1.86523,3.25586,2.91504,6.27148,3.15039,9.05859h-80.15527ZM1568.23438,268.57715c-3.27051,1.04492-6.65039,1.56836-10.15039,1.56836-7.23438,0-12.4248-2.03125-15.57422-6.09766-3.15039-4.06055-4.72559-10.15723-4.72559-18.29004v-63.75781h40.9502v-44.24609h-40.9502v-50.16895h-51.7998v50.16895h-28v44.24609h28v76.64844c0,18.8125,5.25,33.44531,15.75,43.89746s25.42969,15.67773,44.7998,15.67773c5.60059,0,11.2002-.46777,16.7998-1.39355,5.60059-.93066,11.31543-2.43848,17.15039-4.5293v-49.82031c-4.90039,3.02148-8.98535,5.05176-12.25,6.09668ZM1188.0293,140.54102v-2.78711h-63.7002l-57.0498,56.01111v-127.78064h-52.15039v249.45215h52.15039v-57.99524l16.99219-16.45032,47.05762,74.44556h61.9502v-2.78711l-71.81104-107.66931,66.56104-64.43909ZM1199.68457,315.43652h52.14941V65.98438h-52.14941v249.45215Z" style="fill:#02152e;"/><path d="M798.30469,67.90039c-6.30078-6.38574-13.88574-9.58105-22.75-9.58105-9.10059,0-16.80078,3.19531-23.10059,9.58105-6.2998,6.39062-9.4502,14.11035-9.4502,23.16797,0,9.05859,3.15039,16.7832,9.4502,23.16895,6.2998,6.39062,14,9.58105,23.10059,9.58105,8.86426,0,16.44922-3.19043,22.75-9.58105,6.2998-6.38574,9.44922-14.11035,9.44922-23.16895,0-9.05762-3.14941-16.77734-9.44922-23.16797Z" style="fill:#008cfc;"/></svg>